<?xml version="1.0" standalone="no"?>
<!DOCTYPE svg PUBLIC "-//W3C//DTD SVG 20010904//EN"
 "http://www.w3.org/TR/2001/REC-SVG-20010904/DTD/svg10.dtd">
<svg version="1.0" xmlns="http://www.w3.org/2000/svg"
 width="16.000000pt" height="16.000000pt" viewBox="0 0 16.000000 16.000000"
 preserveAspectRatio="xMidYMid meet">
<metadata>
Created by potrace 1.11, written by Peter Selinger 2001-2013
</metadata>
<g transform="translate(0.000000,16.000000) scale(0.006250,-0.006250)"
fill="#000000" stroke="none">
<path d="M1180 2509 c-132 -15 -227 -36 -292 -63 -20 -9 -38 -12 -42 -9 -3 4
-6 1 -6 -5 0 -7 -5 -12 -11 -12 -21 0 -126 -55 -209 -109 -93 -60 -256 -216
-311 -296 -19 -27 -36 -52 -39 -55 -33 -33 -171 -340 -153 -340 3 0 0 -7 -7
-15 -7 -8 -10 -15 -7 -15 3 0 0 -20 -7 -45 -8 -25 -12 -45 -10 -45 3 0 0 -9
-6 -20 -8 -14 -8 -20 0 -20 7 0 8 -6 2 -17 -9 -20 -8 -353 2 -393 3 -14 8 -38
10 -55 11 -82 130 -373 157 -383 5 -2 9 -8 9 -14 0 -32 187 -244 270 -307 19
-14 37 -28 40 -31 38 -43 244 -146 360 -181 145 -43 199 -51 345 -53 164 -1
273 17 433 75 104 37 256 124 342 195 55 46 150 144 150 154 0 6 4 10 9 10 35
0 231 350 231 411 0 11 5 19 12 19 6 0 9 3 6 6 -4 3 -2 20 4 37 5 18 11 46 13
64 1 17 5 35 8 40 11 17 20 136 19 243 0 110 -2 132 -27 275 -2 11 -10 39 -19
63 -8 23 -15 44 -16 47 -1 20 -14 52 -53 135 -17 36 -31 67 -31 70 -3 11 -82
129 -121 180 -54 70 -122 140 -136 140 -5 0 -8 4 -5 8 3 5 -6 15 -19 22 -14 7
-25 17 -25 22 0 4 -7 8 -15 8 -8 0 -15 4 -15 9 0 9 -114 88 -116 80 -1 -2 -10
3 -20 13 -20 17 -138 74 -140 67 0 -2 -8 2 -17 10 -10 7 -17 10 -17 6 0 -4 -6
-3 -12 2 -14 11 -68 30 -109 39 -173 36 -297 46 -409 33z"/>
</g>
</svg>
